<svg xmlns="http://www.w3.org/2000/svg" viewBox="0 0 512 512" width="100" height="100">
  <style>
    .leaf { fill: #4CAF50; }
    .stem { fill: #388E3C; }
    .highlight { fill: #81C784; }
  </style>
  <g>
    <path class="leaf" d="M256 48c-110.5 0-200 89.5-200 200 0 110.5 89.5 200 200 200s200-89.5 200-200c0-110.5-89.5-200-200-200z"/>
    <path class="highlight" d="M156 148c-55.2 55.2-55.2 144.8 0 200 55.2 55.2 144.8 55.2 200 0 55.2-55.2 55.2-144.8 0-200-55.2-55.2-144.8-55.2-200 0z"/>
    <path class="stem" d="M256 128c-66.2 0-120 53.8-120 120s53.8 120 120 120 120-53.8 120-120-53.8-120-120-120zm0 200c-44.1 0-80-35.9-80-80s35.9-80 80-80 80 35.9 80 80-35.9 80-80 80z"/>
  </g>
</svg>