<svg xmlns="http://www.w3.org/2000/svg" viewBox="0 0 512 512" width="100" height="100">
  <style>
    .leaf-dark { fill: #2E7D32; }
    .leaf-medium { fill: #388E3C; }
    .leaf-light { fill: #4CAF50; }
    .stem { fill: #81C784; }
    .vein { fill: none; stroke: #C8E6C9; stroke-width: 2; }
    .basket { fill: #8D6E63; }
    .basket-highlight { fill: #A1887F; }
  </style>
  <g>
    <!-- Basket -->
    <path class="basket" d="M128 320c0-16 16-32 32-32h192c16 0 32 16 32 32v64c0 16-16 32-32 32H160c-16 0-32-16-32-32v-64z"/>
    <path class="basket-highlight" d="M144 336h224v32H144z"/>
    
    <!-- Regular Spinach -->
    <g transform="translate(160, 160)">
      <!-- Stems -->
      <path class="stem" d="M0 64V32"/>
      <path class="stem" d="M0 32l-16 -16"/>
      <path class="stem" d="M0 32l16 -16"/>
      <path class="stem" d="M0 48l-24 -8"/>
      <path class="stem" d="M0 48l24 -8"/>
      
      <!-- Leaves -->
      <path class="leaf-medium" d="M-16 16c-8-8-8-16 0-24s16-8 24 0 8 16 0 24-16 8-24 0z"/>
      <path class="leaf-medium" d="M16 16c8-8 8-16 0-24s-16-8-24 0-8 16 0 24 16 8 24 0z"/>
      <path class="leaf-medium" d="M-24 40c-8-8-8-16 0-24s16-8 24 0 8 16 0 24-16 8-24 0z"/>
      <path class="leaf-medium" d="M24 40c8-8 8-16 0-24s-16-8-24 0-8 16 0 24 16 8 24 0z"/>
      
      <!-- Veins -->
      <path class="vein" d="M-16 16l16-16"/>
      <path class="vein" d="M16 16l-16-16"/>
      <path class="vein" d="M-24 40l24-24"/>
      <path class="vein" d="M24 40l-24-24"/>
    </g>
    
    <!-- Baby Spinach -->
    <g transform="translate(256, 176)">
      <!-- Stems -->
      <path class="stem" d="M0 48V24"/>
      <path class="stem" d="M0 24l-12 -12"/>
      <path class="stem" d="M0 24l12 -12"/>
      <path class="stem" d="M0 36l-16 -6"/>
      <path class="stem" d="M0 36l16 -6"/>
      
      <!-- Leaves -->
      <path class="leaf-light" d="M-12 12c-6-6-6-12 0-18s12-6 18 0 6 12 0 18-12 6-18 0z"/>
      <path class="leaf-light" d="M12 12c6-6 6-12 0-18s-12-6-18 0-6 12 0 18 12 6 18 0z"/>
      <path class="leaf-light" d="M-16 30c-6-6-6-12 0-18s12-6 18 0 6 12 0 18-12 6-18 0z"/>
      <path class="leaf-light" d="M16 30c6-6 6-12 0-18s-12-6-18 0-6 12 0 18 12 6 18 0z"/>
      
      <!-- Veins -->
      <path class="vein" d="M-12 12l12-12"/>
      <path class="vein" d="M12 12l-12-12"/>
      <path class="vein" d="M-16 30l16-16"/>
      <path class="vein" d="M16 30l-16-16"/>
    </g>
    
    <!-- Red Spinach -->
    <g transform="translate(352, 160)">
      <!-- Stems -->
      <path class="stem" d="M0 64V32"/>
      <path class="stem" d="M0 32l-16 -16"/>
      <path class="stem" d="M0 32l16 -16"/>
      <path class="stem" d="M0 48l-24 -8"/>
      <path class="stem" d="M0 48l24 -8"/>
      
      <!-- Leaves -->
      <path class="leaf-dark" d="M-16 16c-8-8-8-16 0-24s16-8 24 0 8 16 0 24-16 8-24 0z"/>
      <path class="leaf-dark" d="M16 16c8-8 8-16 0-24s-16-8-24 0-8 16 0 24 16 8 24 0z"/>
      <path class="leaf-dark" d="M-24 40c-8-8-8-16 0-24s16-8 24 0 8 16 0 24-16 8-24 0z"/>
      <path class="leaf-dark" d="M24 40c8-8 8-16 0-24s-16-8-24 0-8 16 0 24 16 8 24 0z"/>
      
      <!-- Veins -->
      <path class="vein" d="M-16 16l16-16"/>
      <path class="vein" d="M16 16l-16-16"/>
      <path class="vein" d="M-24 40l24-24"/>
      <path class="vein" d="M24 40l-24-24"/>
    </g>
  </g>
</svg>